<svg xmlns="http://www.w3.org/2000/svg" viewBox="0 0 48 48">
  <rect width="48" height="48" rx="10" fill="#00C300"/>
  <path d="M38 22.2c0-6.6-6.3-12-14-12S10 15.6 10 22.2c0 5.9 5 10.9 11.7 11.8.5.1 1.1.3 1.2.6.1.3.1.8 0 1.1l-.2 1.1c-.1.3-.3 1.4 1.2.8s8-4.9 10.9-8.4c2-2.3 3.2-4.7 3.2-7zm-19.7 3.4h-2.7c-.3 0-.5-.2-.5-.5v-6.2c0-.3.2-.5.5-.5s.5.2.5.5v5.7h2.2c.3 0 .5.2.5.5s-.2.5-.5.5zm2.5-.5c0 .3-.2.5-.5.5s-.5-.2-.5-.5v-6.2c0-.3.2-.5.5-.5s.5.2.5.5v6.2zm6.5 0c0 .2-.1.4-.3.5h-.1c-.2 0-.3-.1-.4-.2l-3.1-4.3v4c0 .3-.2.5-.5.5s-.5-.2-.5-.5v-6.2c0-.2.1-.4.3-.5h.1c.2 0 .3.1.4.2l3.1 4.3v-4c0-.3.2-.5.5-.5s.5.2.5.5v6.2zm4.5-4.7c.3 0 .5.2.5.5s-.2.5-.5.5h-2.2v1.5h2.2c.3 0 .5.2.5.5s-.2.5-.5.5h-2.7c-.3 0-.5-.2-.5-.5v-6.2c0-.3.2-.5.5-.5h2.7c.3 0 .5.2.5.5s-.2.5-.5.5h-2.2v1.5h2.2z" fill="white"/>
</svg>
