<svg xmlns="http://www.w3.org/2000/svg" viewBox="0 0 48 48">
  <rect width="48" height="48" rx="10" fill="#7360F2"/>
  <g transform="translate(8, 8) scale(0.667)">
    <path d="M39.2 8.8c-2.1-2.1-7.4-4.5-14.5-4.6h-.1c-7.1.1-12.4 2.5-14.5 4.6C8 10.9 6.7 14.9 6.5 20.1v.1c-.1 5.2 1 9.2 3.1 11.8 0 0 0 0 0 0 1.5 1.8 3.8 3.1 6.7 3.9v4.8l4.5-3c1 .2 2 .3 3 .3h.1c7.1-.1 12.4-2.5 14.5-4.6 2.1-2.1 3.4-6.1 3.6-11.3v-.1c-.2-5.2-1.5-9.2-3.6-11.3-.1.1-.1.1-.2.1zM33 28.8c-.6.7-1.3 1.2-2 1.5-.3.1-.6.2-.9.2-.4 0-.9-.1-1.4-.4-1.7-.8-3.2-1.8-4.6-3.1-1.3-1.3-2.3-2.9-3.1-4.6-.4-.8-.5-1.5-.3-2.2.2-.8.6-1.4 1.2-2l.1-.1c.5-.4 1-.6 1.5-.5.5.1.9.3 1.2.7l1.4 2.1c.3.4.3.9.1 1.4l-.6 1c-.2.3-.2.6 0 .9.6 1.1 1.4 2 2.4 2.7.3.2.6.2.8 0l1-.6c.4-.2.9-.2 1.3.1l2.1 1.4c.4.3.6.6.7 1.1.1.5-.1 1-.5 1.4l.2.1z" fill="white"/>
    <path d="M24.5 14.1c3.1.2 5.7 1.3 7.7 3.3s3.1 4.5 3.3 7.5c0 .4-.3.7-.7.7h-.1c-.4 0-.6-.3-.7-.6-.1-2.7-1.1-5-2.9-6.7-1.8-1.8-4-2.8-6.7-2.9-.4 0-.7-.3-.6-.7 0-.4.3-.6.7-.6z" fill="white"/>
    <path d="M24.5 17.6c2.2.2 4 1 5.4 2.4 1.4 1.4 2.2 3.2 2.4 5.3 0 .4-.2.7-.6.7h-.1c-.4 0-.6-.3-.7-.6-.1-1.8-.8-3.3-2-4.5s-2.7-1.9-4.5-2c-.4 0-.7-.3-.6-.7 0-.4.3-.6.7-.6z" fill="white"/>
    <path d="M24.5 21.2c1.2.1 2.3.6 3.1 1.4.9.9 1.3 1.9 1.4 3.1 0 .4-.2.7-.6.7h-.1c-.4 0-.6-.2-.7-.6-.1-.8-.4-1.6-1-2.2-.6-.6-1.3-.9-2.2-1-.4 0-.7-.3-.6-.7 0-.4.3-.7.7-.7z" fill="white"/>
  </g>
</svg>
