<svg xmlns="http://www.w3.org/2000/svg" viewBox="0 0 48 48">
  <rect width="48" height="48" rx="10" fill="#7360F2"/>
  <g transform="translate(6.5, 5) scale(0.485)">
    <path d="m 64.13,7.45 c -1.9,-1.7 -9.5,-7.3 -26.6,-7.4 0,0 -20.1,-1.2 -29.9,7.8 -5.5,5.5 -7.4,13.4 -7.6,23.3 -0.2,9.9 -0.5,28.4 17.4,33.5 v 7.7 c 0,0 -0.1,3.1 1.9,3.7 2.5,0.8 3.9,-1.6 6.3,-4.1 1.3,-1.4 3.1,-3.4 4.4,-5 12.2,1 21.6,-1.3 22.7,-1.7 2.5,-0.8 16.4,-2.6 18.7,-21.1 2.4,-19.2 -1,-31.3 -7.3,-36.7 z" fill="white"/>
    <path d="m 44.55,30.75 c -0.2,-3.8 -2.1,-5.8 -5.8,-6" fill="none" stroke="white" stroke-linecap="round" stroke-linejoin="round" stroke-width="1.927"/>
    <path d="m 49.55,32.35 c 0.1,-3.5 -1,-6.5 -3.1,-8.8 -2.2,-2.4 -5.2,-3.7 -9,-4" fill="none" stroke="white" stroke-linecap="round" stroke-linejoin="round" stroke-width="1.927"/>
    <path d="m 54.55,34.35 c 0,-6.1 -1.9,-10.9 -5.5,-14.4 -3.6,-3.5 -8.1,-5.3 -13.5,-5.3" fill="none" stroke="white" stroke-linecap="round" stroke-linejoin="round" stroke-width="1.927"/>
    <path d="m 38.95,43.65 c 0,0 1.4,0.1 2.1,-0.8 l 1.4,-1.8 c 0.7,-0.9 2.3,-1.5 4,-0.6 0.9,0.5 2.5,1.5 3.5,2.3 1.1,0.8 3.3,2.6 3.3,2.6 1.1,0.9 1.3,2.2 0.6,3.6 -0.7,1.3 -1.7,2.5 -3,3.6 -1,0.9 -2,1.3 -3,1.5 h -0.4 c -0.4,0 -0.9,-0.1 -1.3,-0.2 -1.5,-0.4 -4,-1.5 -8.3,-3.8 -2.7,-1.5 -5,-3.1 -6.9,-4.6 -1,-0.8 -2.1,-1.7 -3.1,-2.8 l -0.4,-0.4 c -1.1,-1.1 -2,-2.1 -2.8,-3.1 -1.5,-1.9 -3.1,-4.2 -4.6,-6.9 -2.3,-4.2 -3.4,-6.7 -3.8,-8.3 -0.1,-0.4 -0.2,-0.8 -0.2,-1.3 v -0.4 c 0.1,-1 0.6,-2 1.5,-3 1.1,-1.2 2.3,-2.2 3.6,-3 1.4,-0.7 2.7,-0.5 3.6,0.6 0,0 1.8,2.2 2.6,3.3 0.7,1 1.7,2.6 2.3,3.5 0.9,1.6 0.3,3.3 -0.5,4 l -1.8,1.4 c -0.9,0.7 -0.8,2.1 -0.8,2.1 0,0 2.5,9.9 12.4,12.5 z" fill="white"/>
  </g>
</svg>
