<svg xmlns="http://www.w3.org/2000/svg" viewBox="0 0 48 48">
  <rect width="48" height="48" rx="10" fill="#7360F2"/>
  <path d="M33.5 15.2c-1.8-1.8-6.3-3.3-9.5-3.3s-7.7 1.5-9.5 3.3c-1.8 1.8-2.5 4.5-2.5 7.3 0 2.8.7 5 2.5 6.8 0 0 .5.5.5.5v4.2l3.5-2.1c1.5.5 3.3.8 5.5.8 3.2 0 7.7-1.5 9.5-3.3 1.8-1.8 2.5-4 2.5-6.8 0-2.8-.7-5.5-2.5-7.4zm-3.2 11.2c-.5.5-1.1.8-1.8 1-.2 0-.5.1-.7.1-.4 0-.8-.1-1.2-.3-1.5-.7-2.9-1.6-4.1-2.8-1.2-1.2-2.1-2.6-2.8-4.1-.3-.6-.3-1.3-.2-1.9.2-.7.5-1.3 1-1.8.3-.3.7-.5 1.1-.5h.1c.4 0 .7.2.9.5l1.2 1.9c.2.3.2.7 0 1l-.5.8c-.1.2-.1.4 0 .6.5 1 1.2 1.8 2.1 2.4.2.1.4.1.6 0l.8-.5c.3-.2.7-.2 1 0l1.9 1.2c.3.2.5.5.5.9v.1c.1.4-.1.8-.4 1.1l.5.2z" fill="white"/>
</svg>
