<svg xmlns="http://www.w3.org/2000/svg" viewBox="0 0 48 48">
  <rect width="48" height="48" rx="10" fill="#25D366"/>
  <path d="M24 10.5c-7.456 0-13.5 6.044-13.5 13.5 0 2.383.618 4.696 1.793 6.746L10.5 37.5l6.953-1.824A13.44 13.44 0 0024 37.5c7.456 0 13.5-6.044 13.5-13.5S31.456 10.5 24 10.5zm0 24.75c-2.117 0-4.191-.57-5.994-1.648l-.43-.254-4.453 1.168 1.188-4.336-.28-.444A11.21 11.21 0 0112.75 24c0-6.213 5.037-11.25 11.25-11.25S35.25 17.787 35.25 24 30.213 35.25 24 35.25zm6.164-8.426c-.338-.17-2-.988-2.312-1.1-.312-.113-.539-.17-.766.17-.227.338-.879 1.1-1.078 1.327-.199.227-.398.255-.738.085-.338-.17-1.429-.527-2.722-1.68-1.006-.897-1.685-2.005-1.882-2.343-.198-.339-.021-.522.149-.691.153-.152.339-.398.508-.597.17-.199.227-.34.34-.567.114-.227.057-.426-.028-.597-.085-.17-.766-1.847-1.05-2.53-.276-.663-.557-.574-.766-.584l-.652-.011c-.227 0-.597.085-.91.426-.312.34-1.191 1.163-1.191 2.837s1.22 3.29 1.39 3.517c.17.227 2.4 3.665 5.816 5.14.812.35 1.447.56 1.941.717.816.26 1.559.223 2.145.135.654-.098 2.016-.824 2.3-1.62.285-.796.285-1.478.199-1.62-.085-.142-.312-.227-.652-.397z" fill="white"/>
</svg>
